<mxfile host="app.diagrams.net" modified="2023-12-23T03:07:56.630Z" agent="Mozilla/5.0 (Windows NT 10.0; Win64; x64) AppleWebKit/537.36 (KHTML, like Gecko) Chrome/120.0.0.0 Safari/537.36 Edg/120.0.0.0" etag="aZgmT7Yx1CCEUO9iJLsy" version="21.6.5" type="device" pages="2">
  <diagram name="Logical" id="V6a7SnC3Rv4HC1yRopxf">
    <mxGraphModel dx="1002" dy="543" grid="0" gridSize="10" guides="1" tooltips="1" connect="1" arrows="1" fold="1" page="1" pageScale="1" pageWidth="827" pageHeight="1169" background="#ffffff" math="0" shadow="0">
      <root>
        <mxCell id="0" />
        <mxCell id="1" parent="0" />
        <mxCell id="zZbyZJ5l2gq-1yhNSsV1-1" style="edgeStyle=orthogonalEdgeStyle;rounded=0;sketch=1;hachureGap=4;jiggle=2;curveFitting=1;orthogonalLoop=1;jettySize=auto;html=1;fontFamily=Architects Daughter;fontSource=https%3A%2F%2Ffonts.googleapis.com%2Fcss%3Ffamily%3DArchitects%2BDaughter;fontSize=16;endArrow=none;endFill=0;fillColor=#f0a30a;strokeColor=#BD7000;" parent="1" source="-zSNMjfDr29oGhgnYWDr-1" target="-zSNMjfDr29oGhgnYWDr-8" edge="1">
          <mxGeometry relative="1" as="geometry">
            <Array as="points">
              <mxPoint x="230" y="300" />
              <mxPoint x="320" y="300" />
              <mxPoint x="320" y="299" />
            </Array>
          </mxGeometry>
        </mxCell>
        <mxCell id="Of8ZxpsAjSn3luot0dQV-20" style="edgeStyle=orthogonalEdgeStyle;rounded=0;sketch=1;hachureGap=4;jiggle=2;curveFitting=1;orthogonalLoop=1;jettySize=auto;html=1;exitX=1;exitY=0.5;exitDx=0;exitDy=0;fontFamily=Architects Daughter;fontSource=https%3A%2F%2Ffonts.googleapis.com%2Fcss%3Ffamily%3DArchitects%2BDaughter;fontSize=16;fillColor=#dae8fc;strokeColor=#6c8ebf;endArrow=none;endFill=0;strokeWidth=2;" parent="1" source="-zSNMjfDr29oGhgnYWDr-1" edge="1">
          <mxGeometry relative="1" as="geometry">
            <mxPoint x="90" y="340.0000000000001" as="targetPoint" />
            <Array as="points">
              <mxPoint x="110" y="410" />
              <mxPoint x="110" y="340" />
            </Array>
          </mxGeometry>
        </mxCell>
        <mxCell id="-zSNMjfDr29oGhgnYWDr-1" value="Node 1" style="rounded=1;whiteSpace=wrap;html=1;sketch=1;hachureGap=4;jiggle=2;curveFitting=1;fontFamily=Architects Daughter;fontSource=https%3A%2F%2Ffonts.googleapis.com%2Fcss%3Ffamily%3DArchitects%2BDaughter;fontSize=20;direction=west;" parent="1" vertex="1">
          <mxGeometry x="180" y="380" width="100" height="60" as="geometry" />
        </mxCell>
        <mxCell id="-zSNMjfDr29oGhgnYWDr-2" value="&lt;h1&gt;HA - Stacked etc&lt;/h1&gt;" style="text;html=1;strokeColor=none;fillColor=none;spacing=5;spacingTop=-20;whiteSpace=wrap;overflow=hidden;rounded=0;fontSize=20;fontFamily=Architects Daughter;" parent="1" vertex="1">
          <mxGeometry x="20" y="10" width="370" height="80" as="geometry" />
        </mxCell>
        <mxCell id="zZbyZJ5l2gq-1yhNSsV1-3" style="edgeStyle=orthogonalEdgeStyle;rounded=0;sketch=1;hachureGap=4;jiggle=2;curveFitting=1;orthogonalLoop=1;jettySize=auto;html=1;fontFamily=Architects Daughter;fontSource=https%3A%2F%2Ffonts.googleapis.com%2Fcss%3Ffamily%3DArchitects%2BDaughter;fontSize=16;endArrow=none;endFill=0;fillColor=#f0a30a;strokeColor=#BD7000;" parent="1" source="-zSNMjfDr29oGhgnYWDr-3" target="-zSNMjfDr29oGhgnYWDr-8" edge="1">
          <mxGeometry relative="1" as="geometry" />
        </mxCell>
        <mxCell id="Of8ZxpsAjSn3luot0dQV-21" style="edgeStyle=orthogonalEdgeStyle;rounded=0;sketch=1;hachureGap=4;jiggle=2;curveFitting=1;orthogonalLoop=1;jettySize=auto;html=1;fontFamily=Architects Daughter;fontSource=https%3A%2F%2Ffonts.googleapis.com%2Fcss%3Ffamily%3DArchitects%2BDaughter;fontSize=16;fillColor=#dae8fc;strokeColor=#6c8ebf;exitX=0.987;exitY=0.406;exitDx=0;exitDy=0;exitPerimeter=0;endArrow=none;endFill=0;strokeWidth=2;" parent="1" source="-zSNMjfDr29oGhgnYWDr-3" edge="1">
          <mxGeometry relative="1" as="geometry">
            <mxPoint x="90" y="340.0000000000001" as="targetPoint" />
            <Array as="points">
              <mxPoint x="340" y="416" />
              <mxPoint x="340" y="450" />
              <mxPoint x="91" y="450" />
              <mxPoint x="91" y="350" />
              <mxPoint x="90" y="350" />
            </Array>
          </mxGeometry>
        </mxCell>
        <mxCell id="-zSNMjfDr29oGhgnYWDr-3" value="Node 2" style="rounded=1;whiteSpace=wrap;html=1;sketch=1;hachureGap=4;jiggle=2;curveFitting=1;fontFamily=Architects Daughter;fontSource=https%3A%2F%2Ffonts.googleapis.com%2Fcss%3Ffamily%3DArchitects%2BDaughter;fontSize=20;direction=west;" parent="1" vertex="1">
          <mxGeometry x="369" y="385" width="100" height="60" as="geometry" />
        </mxCell>
        <mxCell id="zZbyZJ5l2gq-1yhNSsV1-2" style="edgeStyle=orthogonalEdgeStyle;rounded=0;sketch=1;hachureGap=4;jiggle=2;curveFitting=1;orthogonalLoop=1;jettySize=auto;html=1;fontFamily=Architects Daughter;fontSource=https%3A%2F%2Ffonts.googleapis.com%2Fcss%3Ffamily%3DArchitects%2BDaughter;fontSize=16;endArrow=none;endFill=0;fillColor=#f0a30a;strokeColor=#BD7000;" parent="1" source="-zSNMjfDr29oGhgnYWDr-4" target="-zSNMjfDr29oGhgnYWDr-8" edge="1">
          <mxGeometry relative="1" as="geometry">
            <Array as="points">
              <mxPoint x="575" y="300" />
            </Array>
          </mxGeometry>
        </mxCell>
        <mxCell id="Of8ZxpsAjSn3luot0dQV-22" style="edgeStyle=orthogonalEdgeStyle;rounded=0;sketch=1;hachureGap=4;jiggle=2;curveFitting=1;orthogonalLoop=1;jettySize=auto;html=1;exitX=1;exitY=0.5;exitDx=0;exitDy=0;fontFamily=Architects Daughter;fontSource=https%3A%2F%2Ffonts.googleapis.com%2Fcss%3Ffamily%3DArchitects%2BDaughter;fontSize=16;fillColor=#dae8fc;strokeColor=#6c8ebf;endArrow=none;endFill=0;strokeWidth=2;" parent="1" source="-zSNMjfDr29oGhgnYWDr-4" edge="1">
          <mxGeometry relative="1" as="geometry">
            <mxPoint x="90" y="340.0000000000001" as="targetPoint" />
            <Array as="points">
              <mxPoint x="500" y="415" />
              <mxPoint x="500" y="470" />
              <mxPoint x="70" y="470" />
              <mxPoint x="70" y="340" />
            </Array>
          </mxGeometry>
        </mxCell>
        <mxCell id="-zSNMjfDr29oGhgnYWDr-4" value="Node 3" style="rounded=1;whiteSpace=wrap;html=1;sketch=1;hachureGap=4;jiggle=2;curveFitting=1;fontFamily=Architects Daughter;fontSource=https%3A%2F%2Ffonts.googleapis.com%2Fcss%3Ffamily%3DArchitects%2BDaughter;fontSize=20;direction=west;" parent="1" vertex="1">
          <mxGeometry x="530" y="385" width="90" height="60" as="geometry" />
        </mxCell>
        <mxCell id="-zSNMjfDr29oGhgnYWDr-5" value="" style="shape=image;verticalLabelPosition=bottom;labelBackgroundColor=default;verticalAlign=top;aspect=fixed;imageAspect=0;image=https://kubernetes.io/images/kubeadm/kubeadm-ha-topology-stacked-etcd.svg;" parent="1" vertex="1">
          <mxGeometry x="190" y="560" width="413.34" height="310" as="geometry" />
        </mxCell>
        <mxCell id="-zSNMjfDr29oGhgnYWDr-9" style="edgeStyle=orthogonalEdgeStyle;rounded=0;sketch=1;hachureGap=4;jiggle=2;curveFitting=1;orthogonalLoop=1;jettySize=auto;html=1;exitX=0.5;exitY=1;exitDx=0;exitDy=0;fontFamily=Architects Daughter;fontSource=https%3A%2F%2Ffonts.googleapis.com%2Fcss%3Ffamily%3DArchitects%2BDaughter;fontSize=16;endArrow=none;endFill=0;fillColor=#6a00ff;strokeColor=#3700CC;" parent="1" source="-zSNMjfDr29oGhgnYWDr-6" target="-zSNMjfDr29oGhgnYWDr-8" edge="1">
          <mxGeometry relative="1" as="geometry">
            <Array as="points">
              <mxPoint x="290" y="250" />
              <mxPoint x="419" y="250" />
            </Array>
          </mxGeometry>
        </mxCell>
        <mxCell id="Of8ZxpsAjSn3luot0dQV-7" style="edgeStyle=orthogonalEdgeStyle;rounded=0;sketch=1;hachureGap=4;jiggle=2;curveFitting=1;orthogonalLoop=1;jettySize=auto;html=1;exitX=0.5;exitY=0;exitDx=0;exitDy=0;fontFamily=Architects Daughter;fontSource=https%3A%2F%2Ffonts.googleapis.com%2Fcss%3Ffamily%3DArchitects%2BDaughter;fontSize=16;endArrow=none;endFill=0;fillColor=#d5e8d4;strokeColor=#82b366;strokeWidth=2;" parent="1" source="-zSNMjfDr29oGhgnYWDr-6" edge="1">
          <mxGeometry relative="1" as="geometry">
            <mxPoint x="290.2352941176471" y="110" as="targetPoint" />
          </mxGeometry>
        </mxCell>
        <mxCell id="t6zthMUhSE7V1QbAuCVZ-4" style="edgeStyle=orthogonalEdgeStyle;rounded=0;sketch=1;hachureGap=4;jiggle=2;curveFitting=1;orthogonalLoop=1;jettySize=auto;html=1;exitX=0;exitY=0.5;exitDx=0;exitDy=0;fontFamily=Architects Daughter;fontSource=https%3A%2F%2Ffonts.googleapis.com%2Fcss%3Ffamily%3DArchitects%2BDaughter;fontSize=16;fillColor=#dae8fc;strokeColor=#6c8ebf;strokeWidth=2;endArrow=none;endFill=0;" parent="1" source="-zSNMjfDr29oGhgnYWDr-6" edge="1">
          <mxGeometry relative="1" as="geometry">
            <mxPoint x="180" y="260" as="targetPoint" />
            <Array as="points">
              <mxPoint x="210" y="185" />
              <mxPoint x="210" y="260" />
            </Array>
          </mxGeometry>
        </mxCell>
        <mxCell id="-zSNMjfDr29oGhgnYWDr-6" value="Worker 1" style="rounded=1;whiteSpace=wrap;html=1;sketch=1;hachureGap=4;jiggle=2;curveFitting=1;fontFamily=Architects Daughter;fontSource=https%3A%2F%2Ffonts.googleapis.com%2Fcss%3Ffamily%3DArchitects%2BDaughter;fontSize=20;" parent="1" vertex="1">
          <mxGeometry x="230" y="160" width="120" height="50" as="geometry" />
        </mxCell>
        <mxCell id="-zSNMjfDr29oGhgnYWDr-10" style="edgeStyle=orthogonalEdgeStyle;rounded=0;sketch=1;hachureGap=4;jiggle=2;curveFitting=1;orthogonalLoop=1;jettySize=auto;html=1;exitX=0.5;exitY=1;exitDx=0;exitDy=0;fontFamily=Architects Daughter;fontSource=https%3A%2F%2Ffonts.googleapis.com%2Fcss%3Ffamily%3DArchitects%2BDaughter;fontSize=16;endArrow=none;endFill=0;fillColor=#6a00ff;strokeColor=#3700CC;" parent="1" source="-zSNMjfDr29oGhgnYWDr-7" target="-zSNMjfDr29oGhgnYWDr-8" edge="1">
          <mxGeometry relative="1" as="geometry">
            <Array as="points">
              <mxPoint x="529" y="250" />
              <mxPoint x="419" y="250" />
            </Array>
          </mxGeometry>
        </mxCell>
        <mxCell id="-zSNMjfDr29oGhgnYWDr-7" value="Worker 2" style="rounded=1;whiteSpace=wrap;html=1;sketch=1;hachureGap=4;jiggle=2;curveFitting=1;fontFamily=Architects Daughter;fontSource=https%3A%2F%2Ffonts.googleapis.com%2Fcss%3Ffamily%3DArchitects%2BDaughter;fontSize=20;" parent="1" vertex="1">
          <mxGeometry x="469" y="160" width="120" height="50" as="geometry" />
        </mxCell>
        <mxCell id="Of8ZxpsAjSn3luot0dQV-24" style="edgeStyle=orthogonalEdgeStyle;rounded=0;sketch=1;hachureGap=4;jiggle=2;curveFitting=1;orthogonalLoop=1;jettySize=auto;html=1;fontFamily=Architects Daughter;fontSource=https%3A%2F%2Ffonts.googleapis.com%2Fcss%3Ffamily%3DArchitects%2BDaughter;fontSize=16;fillColor=#dae8fc;strokeColor=#6c8ebf;strokeWidth=2;endArrow=none;endFill=0;" parent="1" source="-zSNMjfDr29oGhgnYWDr-8" edge="1">
          <mxGeometry relative="1" as="geometry">
            <mxPoint x="130" y="340" as="targetPoint" />
            <Array as="points">
              <mxPoint x="280" y="320" />
              <mxPoint x="280" y="320" />
            </Array>
          </mxGeometry>
        </mxCell>
        <mxCell id="-zSNMjfDr29oGhgnYWDr-8" value="HAProxy" style="sketch=0;outlineConnect=0;fontColor=#232F3E;gradientColor=none;fillColor=#8C4FFF;strokeColor=none;dashed=0;verticalLabelPosition=bottom;verticalAlign=top;align=center;html=1;fontSize=12;fontStyle=0;aspect=fixed;pointerEvents=1;shape=mxgraph.aws4.network_load_balancer;hachureGap=4;jiggle=2;curveFitting=1;fontFamily=Architects Daughter;fontSource=https%3A%2F%2Ffonts.googleapis.com%2Fcss%3Ffamily%3DArchitects%2BDaughter;" parent="1" vertex="1">
          <mxGeometry x="380" y="260" width="78" height="78" as="geometry" />
        </mxCell>
        <mxCell id="-zSNMjfDr29oGhgnYWDr-15" value="&lt;p style=&quot;box-sizing: border-box; margin-top: 0px; margin-bottom: 1rem; font-weight: 400; color: rgb(34, 34, 34); font-family: &amp;quot;open sans&amp;quot;, -apple-system, BlinkMacSystemFont, &amp;quot;segoe ui&amp;quot;, Roboto, &amp;quot;helvetica neue&amp;quot;, Arial, sans-serif, &amp;quot;apple color emoji&amp;quot;, &amp;quot;segoe ui emoji&amp;quot;, &amp;quot;segoe ui symbol&amp;quot;; font-size: 16px; font-style: normal; font-variant-ligatures: normal; font-variant-caps: normal; letter-spacing: normal; orphans: 2; text-align: left; text-indent: 0px; text-transform: none; widows: 2; word-spacing: 0px; -webkit-text-stroke-width: 0px; background-color: rgb(255, 255, 255); text-decoration-thickness: initial; text-decoration-style: initial; text-decoration-color: initial;&quot;&gt;You need:&lt;/p&gt;&lt;ul style=&quot;box-sizing: border-box; margin-top: 0px; margin-bottom: 1rem; color: rgb(34, 34, 34); font-family: &amp;quot;open sans&amp;quot;, -apple-system, BlinkMacSystemFont, &amp;quot;segoe ui&amp;quot;, Roboto, &amp;quot;helvetica neue&amp;quot;, Arial, sans-serif, &amp;quot;apple color emoji&amp;quot;, &amp;quot;segoe ui emoji&amp;quot;, &amp;quot;segoe ui symbol&amp;quot;; font-size: 16px; font-style: normal; font-variant-ligatures: normal; font-variant-caps: normal; font-weight: 400; letter-spacing: normal; orphans: 2; text-align: left; text-indent: 0px; text-transform: none; widows: 2; word-spacing: 0px; -webkit-text-stroke-width: 0px; background-color: rgb(255, 255, 255); text-decoration-thickness: initial; text-decoration-style: initial; text-decoration-color: initial;&quot;&gt;&lt;li style=&quot;box-sizing: border-box; font-weight: 400;&quot;&gt;Three or more machines that meet&lt;span&gt;&amp;nbsp;&lt;/span&gt;&lt;a href=&quot;https://kubernetes.io/docs/setup/production-environment/tools/kubeadm/install-kubeadm/#before-you-begin&quot; style=&quot;box-sizing: border-box; color: rgb(15, 48, 110); text-decoration: none; background-color: transparent;&quot;&gt;kubeadm&#39;s minimum requirements&lt;/a&gt;&lt;span&gt;&amp;nbsp;&lt;/span&gt;for the control-plane nodes. Having an odd number of control plane nodes can help with leader selection in the case of machine or zone failure.&lt;ul style=&quot;box-sizing: border-box; margin-top: 0px; margin-bottom: 0px;&quot;&gt;&lt;li style=&quot;box-sizing: border-box; font-weight: 400;&quot;&gt;including a&lt;span&gt;&amp;nbsp;&lt;/span&gt;&lt;a class=&quot;glossary-tooltip&quot; title=&quot;&quot; data-toggle=&quot;tooltip&quot; data-placement=&quot;top&quot; href=&quot;https://kubernetes.io/docs/setup/production-environment/container-runtimes&quot; target=&quot;_blank&quot; aria-label=&quot;container runtime&quot; data-original-title=&quot;The container runtime is the software that is responsible for running containers.&quot; style=&quot;box-sizing: border-box; color: rgb(0, 0, 0); text-decoration: none !important; background-color: transparent; display: inline-block; border-bottom: 1px dotted rgb(0, 0, 0);&quot;&gt;container runtime&lt;/a&gt;, already set up and working&lt;/li&gt;&lt;/ul&gt;&lt;/li&gt;&lt;li style=&quot;box-sizing: border-box; font-weight: 400;&quot;&gt;Three or more machines that meet&lt;span&gt;&amp;nbsp;&lt;/span&gt;&lt;a href=&quot;https://kubernetes.io/docs/setup/production-environment/tools/kubeadm/install-kubeadm/#before-you-begin&quot; style=&quot;box-sizing: border-box; color: rgb(51, 113, 227); text-decoration: none; background-color: transparent;&quot;&gt;kubeadm&#39;s minimum requirements&lt;/a&gt;&lt;span&gt;&amp;nbsp;&lt;/span&gt;for the workers&lt;ul style=&quot;box-sizing: border-box; margin-top: 0px; margin-bottom: 0px;&quot;&gt;&lt;li style=&quot;box-sizing: border-box; font-weight: 400;&quot;&gt;including a container runtime, already set up and working&lt;/li&gt;&lt;/ul&gt;&lt;/li&gt;&lt;li style=&quot;box-sizing: border-box; font-weight: 400;&quot;&gt;Full network connectivity between all machines in the cluster (public or private network)&lt;/li&gt;&lt;li style=&quot;box-sizing: border-box; font-weight: 400;&quot;&gt;Superuser privileges on all machines using&lt;span&gt;&amp;nbsp;&lt;/span&gt;&lt;code style=&quot;box-sizing: border-box; font-family: SFMono-Regular, Menlo, Monaco, Consolas, &amp;quot;liberation mono&amp;quot;, &amp;quot;courier new&amp;quot;, monospace; font-size: 13.6px; color: inherit; overflow-wrap: break-word; padding: 0.2em 0.4em; margin: 0px; word-break: normal; background-color: rgba(0, 0, 0, 0.05); border-radius: 0.25rem;&quot;&gt;sudo&lt;/code&gt;&lt;ul style=&quot;box-sizing: border-box; margin-top: 0px; margin-bottom: 0px;&quot;&gt;&lt;li style=&quot;box-sizing: border-box; font-weight: 400;&quot;&gt;You can use a different tool; this guide uses&lt;span&gt;&amp;nbsp;&lt;/span&gt;&lt;code style=&quot;box-sizing: border-box; font-family: SFMono-Regular, Menlo, Monaco, Consolas, &amp;quot;liberation mono&amp;quot;, &amp;quot;courier new&amp;quot;, monospace; font-size: 13.6px; color: inherit; overflow-wrap: break-word; padding: 0.2em 0.4em; margin: 0px; word-break: normal; background-color: rgba(0, 0, 0, 0.05); border-radius: 0.25rem;&quot;&gt;sudo&lt;/code&gt;&lt;span&gt;&amp;nbsp;&lt;/span&gt;in the examples.&lt;/li&gt;&lt;/ul&gt;&lt;/li&gt;&lt;li style=&quot;box-sizing: border-box; font-weight: 400;&quot;&gt;SSH access from one device to all nodes in the system&lt;/li&gt;&lt;li style=&quot;box-sizing: border-box; font-weight: 400;&quot;&gt;&lt;code style=&quot;box-sizing: border-box; font-family: SFMono-Regular, Menlo, Monaco, Consolas, &amp;quot;liberation mono&amp;quot;, &amp;quot;courier new&amp;quot;, monospace; font-size: 13.6px; color: inherit; overflow-wrap: break-word; padding: 0.2em 0.4em; margin: 0px; word-break: normal; background-color: rgba(0, 0, 0, 0.05); border-radius: 0.25rem;&quot;&gt;kubeadm&lt;/code&gt;&lt;span&gt;&amp;nbsp;&lt;/span&gt;and&lt;span&gt;&amp;nbsp;&lt;/span&gt;&lt;code style=&quot;box-sizing: border-box; font-family: SFMono-Regular, Menlo, Monaco, Consolas, &amp;quot;liberation mono&amp;quot;, &amp;quot;courier new&amp;quot;, monospace; font-size: 13.6px; color: inherit; overflow-wrap: break-word; padding: 0.2em 0.4em; margin: 0px; word-break: normal; background-color: rgba(0, 0, 0, 0.05); border-radius: 0.25rem;&quot;&gt;kubelet&lt;/code&gt;&lt;span&gt;&amp;nbsp;&lt;/span&gt;already installed on all machines.&lt;/li&gt;&lt;/ul&gt;" style="text;whiteSpace=wrap;html=1;fontSize=20;fontFamily=Architects Daughter;" parent="1" vertex="1">
          <mxGeometry x="150" y="850" width="560" height="360" as="geometry" />
        </mxCell>
        <mxCell id="Of8ZxpsAjSn3luot0dQV-4" value="NAT" style="endArrow=none;html=1;rounded=0;sketch=1;hachureGap=4;jiggle=2;curveFitting=1;fontFamily=Architects Daughter;fontSource=https%3A%2F%2Ffonts.googleapis.com%2Fcss%3Ffamily%3DArchitects%2BDaughter;fontSize=16;fillColor=#d5e8d4;strokeColor=#82b366;strokeWidth=5;fontStyle=1" parent="1" edge="1">
          <mxGeometry width="50" height="50" relative="1" as="geometry">
            <mxPoint x="50" y="110" as="sourcePoint" />
            <mxPoint x="602.98" y="110" as="targetPoint" />
          </mxGeometry>
        </mxCell>
        <mxCell id="Of8ZxpsAjSn3luot0dQV-9" style="edgeStyle=orthogonalEdgeStyle;rounded=0;sketch=1;hachureGap=4;jiggle=2;curveFitting=1;orthogonalLoop=1;jettySize=auto;html=1;exitX=0.5;exitY=0;exitDx=0;exitDy=0;fontFamily=Architects Daughter;fontSource=https%3A%2F%2Ffonts.googleapis.com%2Fcss%3Ffamily%3DArchitects%2BDaughter;fontSize=16;endArrow=none;endFill=0;fillColor=#d5e8d4;strokeColor=#82b366;strokeWidth=2;" parent="1" edge="1">
          <mxGeometry relative="1" as="geometry">
            <mxPoint x="528.8152941176471" y="110" as="targetPoint" />
            <mxPoint x="528.58" y="160" as="sourcePoint" />
          </mxGeometry>
        </mxCell>
        <mxCell id="Of8ZxpsAjSn3luot0dQV-11" value="NAT" style="endArrow=none;html=1;rounded=0;sketch=1;hachureGap=4;jiggle=2;curveFitting=1;fontFamily=Architects Daughter;fontSource=https%3A%2F%2Ffonts.googleapis.com%2Fcss%3Ffamily%3DArchitects%2BDaughter;fontSize=16;fillColor=#d5e8d4;strokeColor=#82b366;strokeWidth=5;fontStyle=1" parent="1" edge="1">
          <mxGeometry width="50" height="50" relative="1" as="geometry">
            <mxPoint x="199" y="490" as="sourcePoint" />
            <mxPoint x="639" y="490" as="targetPoint" />
          </mxGeometry>
        </mxCell>
        <mxCell id="Of8ZxpsAjSn3luot0dQV-12" style="edgeStyle=orthogonalEdgeStyle;rounded=0;sketch=1;hachureGap=4;jiggle=2;curveFitting=1;orthogonalLoop=1;jettySize=auto;html=1;exitX=0.5;exitY=0;exitDx=0;exitDy=0;fontFamily=Architects Daughter;fontSource=https%3A%2F%2Ffonts.googleapis.com%2Fcss%3Ffamily%3DArchitects%2BDaughter;fontSize=16;endArrow=none;endFill=0;fillColor=#d5e8d4;strokeColor=#82b366;strokeWidth=2;" parent="1" edge="1">
          <mxGeometry relative="1" as="geometry">
            <mxPoint x="230.23529411764707" y="440" as="targetPoint" />
            <mxPoint x="230" y="490" as="sourcePoint" />
            <Array as="points">
              <mxPoint x="230" y="470" />
              <mxPoint x="231" y="470" />
              <mxPoint x="231" y="465" />
              <mxPoint x="230" y="465" />
            </Array>
          </mxGeometry>
        </mxCell>
        <mxCell id="Of8ZxpsAjSn3luot0dQV-15" style="edgeStyle=orthogonalEdgeStyle;rounded=0;sketch=1;hachureGap=4;jiggle=2;curveFitting=1;orthogonalLoop=1;jettySize=auto;html=1;fontFamily=Architects Daughter;fontSource=https%3A%2F%2Ffonts.googleapis.com%2Fcss%3Ffamily%3DArchitects%2BDaughter;fontSize=16;endArrow=none;endFill=0;fillColor=#d5e8d4;strokeColor=#82b366;strokeWidth=2;" parent="1" edge="1">
          <mxGeometry relative="1" as="geometry">
            <mxPoint x="580.2352941176471" y="445" as="targetPoint" />
            <mxPoint x="580" y="490" as="sourcePoint" />
            <Array as="points">
              <mxPoint x="580" y="475" />
              <mxPoint x="581" y="475" />
              <mxPoint x="581" y="445" />
            </Array>
          </mxGeometry>
        </mxCell>
        <mxCell id="Of8ZxpsAjSn3luot0dQV-19" style="edgeStyle=orthogonalEdgeStyle;rounded=0;sketch=1;hachureGap=4;jiggle=2;curveFitting=1;orthogonalLoop=1;jettySize=auto;html=1;fontFamily=Architects Daughter;fontSource=https%3A%2F%2Ffonts.googleapis.com%2Fcss%3Ffamily%3DArchitects%2BDaughter;fontSize=16;endArrow=none;endFill=0;fillColor=#dae8fc;strokeColor=#6c8ebf;strokeWidth=2;" parent="1" source="Of8ZxpsAjSn3luot0dQV-16" edge="1">
          <mxGeometry relative="1" as="geometry">
            <mxPoint x="90" y="340.0000000000001" as="targetPoint" />
          </mxGeometry>
        </mxCell>
        <mxCell id="Of8ZxpsAjSn3luot0dQV-23" style="edgeStyle=orthogonalEdgeStyle;rounded=0;sketch=1;hachureGap=4;jiggle=2;curveFitting=1;orthogonalLoop=1;jettySize=auto;html=1;fontFamily=Architects Daughter;fontSource=https%3A%2F%2Ffonts.googleapis.com%2Fcss%3Ffamily%3DArchitects%2BDaughter;fontSize=16;fillColor=#d5e8d4;strokeColor=#82b366;endArrow=none;endFill=0;strokeWidth=2;" parent="1" source="Of8ZxpsAjSn3luot0dQV-16" edge="1">
          <mxGeometry relative="1" as="geometry">
            <mxPoint x="90" y="110" as="targetPoint" />
          </mxGeometry>
        </mxCell>
        <mxCell id="t6zthMUhSE7V1QbAuCVZ-1" style="edgeStyle=orthogonalEdgeStyle;rounded=0;sketch=1;hachureGap=4;jiggle=2;curveFitting=1;orthogonalLoop=1;jettySize=auto;html=1;fontFamily=Architects Daughter;fontSource=https%3A%2F%2Ffonts.googleapis.com%2Fcss%3Ffamily%3DArchitects%2BDaughter;fontSize=16;fillColor=#dae8fc;strokeColor=#6c8ebf;endArrow=none;endFill=0;strokeWidth=2;" parent="1" source="Of8ZxpsAjSn3luot0dQV-16" edge="1">
          <mxGeometry relative="1" as="geometry">
            <mxPoint x="180" y="265" as="targetPoint" />
          </mxGeometry>
        </mxCell>
        <mxCell id="Of8ZxpsAjSn3luot0dQV-16" value="Services&lt;br&gt;&lt;font style=&quot;font-size: 12px;&quot;&gt;DNS, NTP&lt;/font&gt;" style="rounded=1;whiteSpace=wrap;html=1;sketch=1;hachureGap=4;jiggle=2;curveFitting=1;fontFamily=Architects Daughter;fontSource=https%3A%2F%2Ffonts.googleapis.com%2Fcss%3Ffamily%3DArchitects%2BDaughter;fontSize=20;" parent="1" vertex="1">
          <mxGeometry x="30" y="240" width="120" height="50" as="geometry" />
        </mxCell>
        <mxCell id="Of8ZxpsAjSn3luot0dQV-18" value="" style="endArrow=none;html=1;rounded=0;sketch=1;hachureGap=4;jiggle=2;curveFitting=1;fontFamily=Architects Daughter;fontSource=https%3A%2F%2Ffonts.googleapis.com%2Fcss%3Ffamily%3DArchitects%2BDaughter;fontSize=16;fillColor=#dae8fc;strokeColor=#6c8ebf;strokeWidth=3;" parent="1" edge="1">
          <mxGeometry width="50" height="50" relative="1" as="geometry">
            <mxPoint x="40" y="340" as="sourcePoint" />
            <mxPoint x="150" y="340" as="targetPoint" />
          </mxGeometry>
        </mxCell>
        <mxCell id="E2HVy3zZrZBvHQwOudDp-1" value="Frontend" style="text;html=1;strokeColor=none;fillColor=none;align=center;verticalAlign=middle;whiteSpace=wrap;rounded=0;fontSize=20;fontFamily=Architects Daughter;" parent="1" vertex="1">
          <mxGeometry x="630" y="205" width="60" height="30" as="geometry" />
        </mxCell>
        <mxCell id="E2HVy3zZrZBvHQwOudDp-2" value="Backend" style="text;html=1;strokeColor=none;fillColor=none;align=center;verticalAlign=middle;whiteSpace=wrap;rounded=0;fontSize=20;fontFamily=Architects Daughter;" parent="1" vertex="1">
          <mxGeometry x="630" y="330" width="60" height="30" as="geometry" />
        </mxCell>
        <mxCell id="E2HVy3zZrZBvHQwOudDp-15" value=".1" style="edgeLabel;html=1;align=center;verticalAlign=middle;resizable=0;points=[];fontSize=16;fontFamily=Architects Daughter;" parent="1" vertex="1" connectable="0">
          <mxGeometry x="550.0042755174888" y="239.99857142857135" as="geometry">
            <mxPoint x="-291" y="127" as="offset" />
          </mxGeometry>
        </mxCell>
        <mxCell id="E2HVy3zZrZBvHQwOudDp-16" value=".2" style="edgeLabel;html=1;align=center;verticalAlign=middle;resizable=0;points=[];fontSize=16;fontFamily=Architects Daughter;" parent="1" vertex="1" connectable="0">
          <mxGeometry x="430.00427551748885" y="369.9985714285714" as="geometry" />
        </mxCell>
        <mxCell id="E2HVy3zZrZBvHQwOudDp-17" value=".3" style="edgeLabel;html=1;align=center;verticalAlign=middle;resizable=0;points=[];fontSize=16;fontFamily=Architects Daughter;" parent="1" vertex="1" connectable="0">
          <mxGeometry x="589.0042755174888" y="369.9985714285714" as="geometry" />
        </mxCell>
        <mxCell id="E2HVy3zZrZBvHQwOudDp-18" value="10.200.3.0/24" style="edgeLabel;html=1;align=center;verticalAlign=middle;resizable=0;points=[];fontSize=10;fontFamily=Architects Daughter;" parent="1" vertex="1" connectable="0">
          <mxGeometry x="140.0042755174889" y="349.9985714285714" as="geometry">
            <mxPoint x="6" y="2" as="offset" />
          </mxGeometry>
        </mxCell>
        <mxCell id="t6zthMUhSE7V1QbAuCVZ-2" value="" style="endArrow=none;html=1;rounded=0;sketch=1;hachureGap=4;jiggle=2;curveFitting=1;fontFamily=Architects Daughter;fontSource=https%3A%2F%2Ffonts.googleapis.com%2Fcss%3Ffamily%3DArchitects%2BDaughter;fontSize=16;fillColor=#dae8fc;strokeColor=#6c8ebf;strokeWidth=3;" parent="1" edge="1">
          <mxGeometry width="50" height="50" relative="1" as="geometry">
            <mxPoint x="180" y="230" as="sourcePoint" />
            <mxPoint x="180" y="300" as="targetPoint" />
          </mxGeometry>
        </mxCell>
        <mxCell id="t6zthMUhSE7V1QbAuCVZ-6" value=".254" style="edgeLabel;html=1;align=center;verticalAlign=middle;resizable=0;points=[];fontSize=13;fontFamily=Architects Daughter;" parent="1" vertex="1" connectable="0">
          <mxGeometry x="60.00427551748891" y="309.9985714285714" as="geometry">
            <mxPoint x="-3" y="-3" as="offset" />
          </mxGeometry>
        </mxCell>
        <mxCell id="t6zthMUhSE7V1QbAuCVZ-8" value=".1" style="text;html=1;strokeColor=none;fillColor=none;align=center;verticalAlign=middle;whiteSpace=wrap;rounded=0;fontSize=14;fontFamily=Architects Daughter;" parent="1" vertex="1">
          <mxGeometry x="190" y="160" width="30" height="20" as="geometry" />
        </mxCell>
        <mxCell id="t6zthMUhSE7V1QbAuCVZ-9" value=".1" style="text;html=1;strokeColor=none;fillColor=none;align=center;verticalAlign=middle;whiteSpace=wrap;rounded=0;fontSize=14;fontFamily=Architects Daughter;" parent="1" vertex="1">
          <mxGeometry x="260" y="210" width="30" height="20" as="geometry" />
        </mxCell>
        <mxCell id="t6zthMUhSE7V1QbAuCVZ-10" value=".2" style="text;html=1;strokeColor=none;fillColor=none;align=center;verticalAlign=middle;whiteSpace=wrap;rounded=0;fontSize=14;fontFamily=Architects Daughter;" parent="1" vertex="1">
          <mxGeometry x="530" y="210" width="30" height="20" as="geometry" />
        </mxCell>
        <mxCell id="t6zthMUhSE7V1QbAuCVZ-11" value=".254" style="text;html=1;strokeColor=none;fillColor=none;align=center;verticalAlign=middle;whiteSpace=wrap;rounded=0;fontSize=14;fontFamily=Architects Daughter;" parent="1" vertex="1">
          <mxGeometry x="458" y="270" width="30" height="20" as="geometry" />
        </mxCell>
        <mxCell id="t6zthMUhSE7V1QbAuCVZ-12" value="10.200.1.0/24" style="text;html=1;strokeColor=none;fillColor=none;align=center;verticalAlign=middle;whiteSpace=wrap;rounded=0;fontSize=14;fontFamily=Architects Daughter;" parent="1" vertex="1">
          <mxGeometry x="490" y="350" width="30" height="20" as="geometry" />
        </mxCell>
        <mxCell id="t6zthMUhSE7V1QbAuCVZ-13" value="10.200.2.0/24" style="text;html=1;strokeColor=none;fillColor=none;align=center;verticalAlign=middle;whiteSpace=wrap;rounded=0;fontSize=14;fontFamily=Architects Daughter;" parent="1" vertex="1">
          <mxGeometry x="400" y="215" width="30" height="20" as="geometry" />
        </mxCell>
        <mxCell id="t6zthMUhSE7V1QbAuCVZ-14" value="10.2.0.0/24" style="text;html=1;strokeColor=none;fillColor=none;align=center;verticalAlign=middle;whiteSpace=wrap;rounded=0;fontSize=14;fontFamily=Architects Daughter;" parent="1" vertex="1">
          <mxGeometry x="320" y="130" width="30" height="20" as="geometry" />
        </mxCell>
        <mxCell id="eMANOVI4zJVQZyWiJStH-1" value="" style="endArrow=none;html=1;rounded=0;sketch=1;hachureGap=4;jiggle=2;curveFitting=1;fontFamily=Architects Daughter;fontSource=https%3A%2F%2Ffonts.googleapis.com%2Fcss%3Ffamily%3DArchitects%2BDaughter;fontSize=16;entryX=0.25;entryY=0;entryDx=0;entryDy=0;strokeWidth=2;fillColor=#d5e8d4;strokeColor=#82b366;" parent="1" target="-zSNMjfDr29oGhgnYWDr-3" edge="1">
          <mxGeometry width="50" height="50" relative="1" as="geometry">
            <mxPoint x="444" y="490" as="sourcePoint" />
            <mxPoint x="410" y="420" as="targetPoint" />
          </mxGeometry>
        </mxCell>
      </root>
    </mxGraphModel>
  </diagram>
  <diagram name="PHY" id="_b952GkTu1mVgNelJ1pM">
    <mxGraphModel dx="1355" dy="751" grid="1" gridSize="10" guides="1" tooltips="1" connect="1" arrows="1" fold="1" page="1" pageScale="1" pageWidth="827" pageHeight="1169" background="#ffffff" math="0" shadow="0">
      <root>
        <mxCell id="2wqAKMWFrU9B8WnP5a0L-0" />
        <mxCell id="2wqAKMWFrU9B8WnP5a0L-1" parent="2wqAKMWFrU9B8WnP5a0L-0" />
        <mxCell id="2wqAKMWFrU9B8WnP5a0L-2" style="edgeStyle=orthogonalEdgeStyle;rounded=0;sketch=1;hachureGap=4;jiggle=2;curveFitting=1;orthogonalLoop=1;jettySize=auto;html=1;fontFamily=Architects Daughter;fontSource=https%3A%2F%2Ffonts.googleapis.com%2Fcss%3Ffamily%3DArchitects%2BDaughter;fontSize=16;" parent="2wqAKMWFrU9B8WnP5a0L-1" source="2wqAKMWFrU9B8WnP5a0L-3" target="2wqAKMWFrU9B8WnP5a0L-14" edge="1">
          <mxGeometry relative="1" as="geometry">
            <Array as="points">
              <mxPoint x="216.67" y="300" />
              <mxPoint x="306.67" y="300" />
              <mxPoint x="306.67" y="299" />
            </Array>
          </mxGeometry>
        </mxCell>
        <mxCell id="2wqAKMWFrU9B8WnP5a0L-3" value="Node 1" style="rounded=1;whiteSpace=wrap;html=1;sketch=1;hachureGap=4;jiggle=2;curveFitting=1;fontFamily=Architects Daughter;fontSource=https%3A%2F%2Ffonts.googleapis.com%2Fcss%3Ffamily%3DArchitects%2BDaughter;fontSize=20;direction=west;" parent="2wqAKMWFrU9B8WnP5a0L-1" vertex="1">
          <mxGeometry x="166.67" y="380" width="100" height="60" as="geometry" />
        </mxCell>
        <mxCell id="2wqAKMWFrU9B8WnP5a0L-4" value="&lt;h1&gt;HA - Stacked etc&lt;/h1&gt;" style="text;html=1;strokeColor=none;fillColor=none;spacing=5;spacingTop=-20;whiteSpace=wrap;overflow=hidden;rounded=0;fontSize=20;fontFamily=Architects Daughter;" parent="2wqAKMWFrU9B8WnP5a0L-1" vertex="1">
          <mxGeometry x="20" y="10" width="370" height="80" as="geometry" />
        </mxCell>
        <mxCell id="2wqAKMWFrU9B8WnP5a0L-5" style="edgeStyle=orthogonalEdgeStyle;rounded=0;sketch=1;hachureGap=4;jiggle=2;curveFitting=1;orthogonalLoop=1;jettySize=auto;html=1;fontFamily=Architects Daughter;fontSource=https%3A%2F%2Ffonts.googleapis.com%2Fcss%3Ffamily%3DArchitects%2BDaughter;fontSize=16;" parent="2wqAKMWFrU9B8WnP5a0L-1" source="2wqAKMWFrU9B8WnP5a0L-6" target="2wqAKMWFrU9B8WnP5a0L-14" edge="1">
          <mxGeometry relative="1" as="geometry" />
        </mxCell>
        <mxCell id="2wqAKMWFrU9B8WnP5a0L-6" value="Node 2" style="rounded=1;whiteSpace=wrap;html=1;sketch=1;hachureGap=4;jiggle=2;curveFitting=1;fontFamily=Architects Daughter;fontSource=https%3A%2F%2Ffonts.googleapis.com%2Fcss%3Ffamily%3DArchitects%2BDaughter;fontSize=20;direction=west;" parent="2wqAKMWFrU9B8WnP5a0L-1" vertex="1">
          <mxGeometry x="355.67" y="380" width="100" height="60" as="geometry" />
        </mxCell>
        <mxCell id="2wqAKMWFrU9B8WnP5a0L-7" style="edgeStyle=orthogonalEdgeStyle;rounded=0;sketch=1;hachureGap=4;jiggle=2;curveFitting=1;orthogonalLoop=1;jettySize=auto;html=1;fontFamily=Architects Daughter;fontSource=https%3A%2F%2Ffonts.googleapis.com%2Fcss%3Ffamily%3DArchitects%2BDaughter;fontSize=16;" parent="2wqAKMWFrU9B8WnP5a0L-1" source="2wqAKMWFrU9B8WnP5a0L-8" target="2wqAKMWFrU9B8WnP5a0L-14" edge="1">
          <mxGeometry relative="1" as="geometry">
            <Array as="points">
              <mxPoint x="561.67" y="300" />
            </Array>
          </mxGeometry>
        </mxCell>
        <mxCell id="2wqAKMWFrU9B8WnP5a0L-8" value="Node 3" style="rounded=1;whiteSpace=wrap;html=1;sketch=1;hachureGap=4;jiggle=2;curveFitting=1;fontFamily=Architects Daughter;fontSource=https%3A%2F%2Ffonts.googleapis.com%2Fcss%3Ffamily%3DArchitects%2BDaughter;fontSize=20;direction=west;" parent="2wqAKMWFrU9B8WnP5a0L-1" vertex="1">
          <mxGeometry x="516.67" y="385" width="90" height="60" as="geometry" />
        </mxCell>
        <mxCell id="2wqAKMWFrU9B8WnP5a0L-9" value="" style="shape=image;verticalLabelPosition=bottom;labelBackgroundColor=default;verticalAlign=top;aspect=fixed;imageAspect=0;image=https://kubernetes.io/images/kubeadm/kubeadm-ha-topology-stacked-etcd.svg;" parent="2wqAKMWFrU9B8WnP5a0L-1" vertex="1">
          <mxGeometry x="180" y="490" width="413.34" height="310" as="geometry" />
        </mxCell>
        <mxCell id="2wqAKMWFrU9B8WnP5a0L-10" style="edgeStyle=orthogonalEdgeStyle;rounded=0;sketch=1;hachureGap=4;jiggle=2;curveFitting=1;orthogonalLoop=1;jettySize=auto;html=1;exitX=0.5;exitY=1;exitDx=0;exitDy=0;fontFamily=Architects Daughter;fontSource=https%3A%2F%2Ffonts.googleapis.com%2Fcss%3Ffamily%3DArchitects%2BDaughter;fontSize=16;endArrow=none;endFill=0;" parent="2wqAKMWFrU9B8WnP5a0L-1" source="2wqAKMWFrU9B8WnP5a0L-11" target="2wqAKMWFrU9B8WnP5a0L-14" edge="1">
          <mxGeometry relative="1" as="geometry">
            <Array as="points">
              <mxPoint x="190" y="220" />
              <mxPoint x="406" y="220" />
            </Array>
          </mxGeometry>
        </mxCell>
        <mxCell id="2wqAKMWFrU9B8WnP5a0L-11" value="Worker 1" style="rounded=1;whiteSpace=wrap;html=1;sketch=1;hachureGap=4;jiggle=2;curveFitting=1;fontFamily=Architects Daughter;fontSource=https%3A%2F%2Ffonts.googleapis.com%2Fcss%3Ffamily%3DArchitects%2BDaughter;fontSize=20;" parent="2wqAKMWFrU9B8WnP5a0L-1" vertex="1">
          <mxGeometry x="130" y="120" width="120" height="50" as="geometry" />
        </mxCell>
        <mxCell id="2wqAKMWFrU9B8WnP5a0L-12" style="edgeStyle=orthogonalEdgeStyle;rounded=0;sketch=1;hachureGap=4;jiggle=2;curveFitting=1;orthogonalLoop=1;jettySize=auto;html=1;exitX=0.5;exitY=1;exitDx=0;exitDy=0;fontFamily=Architects Daughter;fontSource=https%3A%2F%2Ffonts.googleapis.com%2Fcss%3Ffamily%3DArchitects%2BDaughter;fontSize=16;endArrow=none;endFill=0;" parent="2wqAKMWFrU9B8WnP5a0L-1" edge="1">
          <mxGeometry relative="1" as="geometry">
            <Array as="points">
              <mxPoint x="620" y="130" />
              <mxPoint x="620" y="220" />
              <mxPoint x="406" y="220" />
            </Array>
            <mxPoint x="620" y="130" as="sourcePoint" />
            <mxPoint x="406" y="230" as="targetPoint" />
          </mxGeometry>
        </mxCell>
        <mxCell id="2wqAKMWFrU9B8WnP5a0L-13" value="Worker 2" style="rounded=1;whiteSpace=wrap;html=1;sketch=1;hachureGap=4;jiggle=2;curveFitting=1;fontFamily=Architects Daughter;fontSource=https%3A%2F%2Ffonts.googleapis.com%2Fcss%3Ffamily%3DArchitects%2BDaughter;fontSize=20;" parent="2wqAKMWFrU9B8WnP5a0L-1" vertex="1">
          <mxGeometry x="560" y="110" width="120" height="50" as="geometry" />
        </mxCell>
        <mxCell id="2wqAKMWFrU9B8WnP5a0L-14" value="HAProxy" style="sketch=0;outlineConnect=0;fontColor=#232F3E;gradientColor=none;fillColor=#8C4FFF;strokeColor=none;dashed=0;verticalLabelPosition=bottom;verticalAlign=top;align=center;html=1;fontSize=12;fontStyle=0;aspect=fixed;pointerEvents=1;shape=mxgraph.aws4.network_load_balancer;hachureGap=4;jiggle=2;curveFitting=1;fontFamily=Architects Daughter;fontSource=https%3A%2F%2Ffonts.googleapis.com%2Fcss%3Ffamily%3DArchitects%2BDaughter;" parent="2wqAKMWFrU9B8WnP5a0L-1" vertex="1">
          <mxGeometry x="366.67" y="260" width="78" height="78" as="geometry" />
        </mxCell>
        <mxCell id="2wqAKMWFrU9B8WnP5a0L-15" value="&lt;p style=&quot;box-sizing: border-box; margin-top: 0px; margin-bottom: 1rem; font-weight: 400; color: rgb(34, 34, 34); font-family: &amp;quot;open sans&amp;quot;, -apple-system, BlinkMacSystemFont, &amp;quot;segoe ui&amp;quot;, Roboto, &amp;quot;helvetica neue&amp;quot;, Arial, sans-serif, &amp;quot;apple color emoji&amp;quot;, &amp;quot;segoe ui emoji&amp;quot;, &amp;quot;segoe ui symbol&amp;quot;; font-size: 16px; font-style: normal; font-variant-ligatures: normal; font-variant-caps: normal; letter-spacing: normal; orphans: 2; text-align: left; text-indent: 0px; text-transform: none; widows: 2; word-spacing: 0px; -webkit-text-stroke-width: 0px; background-color: rgb(255, 255, 255); text-decoration-thickness: initial; text-decoration-style: initial; text-decoration-color: initial;&quot;&gt;You need:&lt;/p&gt;&lt;ul style=&quot;box-sizing: border-box; margin-top: 0px; margin-bottom: 1rem; color: rgb(34, 34, 34); font-family: &amp;quot;open sans&amp;quot;, -apple-system, BlinkMacSystemFont, &amp;quot;segoe ui&amp;quot;, Roboto, &amp;quot;helvetica neue&amp;quot;, Arial, sans-serif, &amp;quot;apple color emoji&amp;quot;, &amp;quot;segoe ui emoji&amp;quot;, &amp;quot;segoe ui symbol&amp;quot;; font-size: 16px; font-style: normal; font-variant-ligatures: normal; font-variant-caps: normal; font-weight: 400; letter-spacing: normal; orphans: 2; text-align: left; text-indent: 0px; text-transform: none; widows: 2; word-spacing: 0px; -webkit-text-stroke-width: 0px; background-color: rgb(255, 255, 255); text-decoration-thickness: initial; text-decoration-style: initial; text-decoration-color: initial;&quot;&gt;&lt;li style=&quot;box-sizing: border-box; font-weight: 400;&quot;&gt;Three or more machines that meet&lt;span&gt;&amp;nbsp;&lt;/span&gt;&lt;a href=&quot;https://kubernetes.io/docs/setup/production-environment/tools/kubeadm/install-kubeadm/#before-you-begin&quot; style=&quot;box-sizing: border-box; color: rgb(15, 48, 110); text-decoration: none; background-color: transparent;&quot;&gt;kubeadm&#39;s minimum requirements&lt;/a&gt;&lt;span&gt;&amp;nbsp;&lt;/span&gt;for the control-plane nodes. Having an odd number of control plane nodes can help with leader selection in the case of machine or zone failure.&lt;ul style=&quot;box-sizing: border-box; margin-top: 0px; margin-bottom: 0px;&quot;&gt;&lt;li style=&quot;box-sizing: border-box; font-weight: 400;&quot;&gt;including a&lt;span&gt;&amp;nbsp;&lt;/span&gt;&lt;a class=&quot;glossary-tooltip&quot; title=&quot;&quot; data-toggle=&quot;tooltip&quot; data-placement=&quot;top&quot; href=&quot;https://kubernetes.io/docs/setup/production-environment/container-runtimes&quot; target=&quot;_blank&quot; aria-label=&quot;container runtime&quot; data-original-title=&quot;The container runtime is the software that is responsible for running containers.&quot; style=&quot;box-sizing: border-box; color: rgb(0, 0, 0); text-decoration: none !important; background-color: transparent; display: inline-block; border-bottom: 1px dotted rgb(0, 0, 0);&quot;&gt;container runtime&lt;/a&gt;, already set up and working&lt;/li&gt;&lt;/ul&gt;&lt;/li&gt;&lt;li style=&quot;box-sizing: border-box; font-weight: 400;&quot;&gt;Three or more machines that meet&lt;span&gt;&amp;nbsp;&lt;/span&gt;&lt;a href=&quot;https://kubernetes.io/docs/setup/production-environment/tools/kubeadm/install-kubeadm/#before-you-begin&quot; style=&quot;box-sizing: border-box; color: rgb(51, 113, 227); text-decoration: none; background-color: transparent;&quot;&gt;kubeadm&#39;s minimum requirements&lt;/a&gt;&lt;span&gt;&amp;nbsp;&lt;/span&gt;for the workers&lt;ul style=&quot;box-sizing: border-box; margin-top: 0px; margin-bottom: 0px;&quot;&gt;&lt;li style=&quot;box-sizing: border-box; font-weight: 400;&quot;&gt;including a container runtime, already set up and working&lt;/li&gt;&lt;/ul&gt;&lt;/li&gt;&lt;li style=&quot;box-sizing: border-box; font-weight: 400;&quot;&gt;Full network connectivity between all machines in the cluster (public or private network)&lt;/li&gt;&lt;li style=&quot;box-sizing: border-box; font-weight: 400;&quot;&gt;Superuser privileges on all machines using&lt;span&gt;&amp;nbsp;&lt;/span&gt;&lt;code style=&quot;box-sizing: border-box; font-family: SFMono-Regular, Menlo, Monaco, Consolas, &amp;quot;liberation mono&amp;quot;, &amp;quot;courier new&amp;quot;, monospace; font-size: 13.6px; color: inherit; overflow-wrap: break-word; padding: 0.2em 0.4em; margin: 0px; word-break: normal; background-color: rgba(0, 0, 0, 0.05); border-radius: 0.25rem;&quot;&gt;sudo&lt;/code&gt;&lt;ul style=&quot;box-sizing: border-box; margin-top: 0px; margin-bottom: 0px;&quot;&gt;&lt;li style=&quot;box-sizing: border-box; font-weight: 400;&quot;&gt;You can use a different tool; this guide uses&lt;span&gt;&amp;nbsp;&lt;/span&gt;&lt;code style=&quot;box-sizing: border-box; font-family: SFMono-Regular, Menlo, Monaco, Consolas, &amp;quot;liberation mono&amp;quot;, &amp;quot;courier new&amp;quot;, monospace; font-size: 13.6px; color: inherit; overflow-wrap: break-word; padding: 0.2em 0.4em; margin: 0px; word-break: normal; background-color: rgba(0, 0, 0, 0.05); border-radius: 0.25rem;&quot;&gt;sudo&lt;/code&gt;&lt;span&gt;&amp;nbsp;&lt;/span&gt;in the examples.&lt;/li&gt;&lt;/ul&gt;&lt;/li&gt;&lt;li style=&quot;box-sizing: border-box; font-weight: 400;&quot;&gt;SSH access from one device to all nodes in the system&lt;/li&gt;&lt;li style=&quot;box-sizing: border-box; font-weight: 400;&quot;&gt;&lt;code style=&quot;box-sizing: border-box; font-family: SFMono-Regular, Menlo, Monaco, Consolas, &amp;quot;liberation mono&amp;quot;, &amp;quot;courier new&amp;quot;, monospace; font-size: 13.6px; color: inherit; overflow-wrap: break-word; padding: 0.2em 0.4em; margin: 0px; word-break: normal; background-color: rgba(0, 0, 0, 0.05); border-radius: 0.25rem;&quot;&gt;kubeadm&lt;/code&gt;&lt;span&gt;&amp;nbsp;&lt;/span&gt;and&lt;span&gt;&amp;nbsp;&lt;/span&gt;&lt;code style=&quot;box-sizing: border-box; font-family: SFMono-Regular, Menlo, Monaco, Consolas, &amp;quot;liberation mono&amp;quot;, &amp;quot;courier new&amp;quot;, monospace; font-size: 13.6px; color: inherit; overflow-wrap: break-word; padding: 0.2em 0.4em; margin: 0px; word-break: normal; background-color: rgba(0, 0, 0, 0.05); border-radius: 0.25rem;&quot;&gt;kubelet&lt;/code&gt;&lt;span&gt;&amp;nbsp;&lt;/span&gt;already installed on all machines.&lt;/li&gt;&lt;/ul&gt;" style="text;whiteSpace=wrap;html=1;fontSize=20;fontFamily=Architects Daughter;" parent="2wqAKMWFrU9B8WnP5a0L-1" vertex="1">
          <mxGeometry x="140" y="780" width="560" height="360" as="geometry" />
        </mxCell>
      </root>
    </mxGraphModel>
  </diagram>
</mxfile>
